<svg width="103" height="77" viewBox="0 0 103 77" fill="none" xmlns="http://www.w3.org/2000/svg">
<path d="M65.7021 41.0074C65.7021 44.7279 65.1506 48.2059 64.0475 51.4412C62.9904 54.6225 61.5426 57.5613 59.7041 60.2574C57.9116 62.8995 55.8434 65.2721 53.4993 67.375C51.2012 69.424 48.7883 71.1495 46.2604 72.5515C43.7784 74.0074 41.2965 75.1127 38.8146 75.8676C36.3327 76.6226 34.0346 77 31.9203 77H31.2309C29.1167 76.9461 26.8646 76.5417 24.4746 75.7868C22.1305 75.0319 19.7865 73.9265 17.4424 72.4706C15.1444 71.0686 12.9382 69.3162 10.824 67.2132C8.75569 65.1103 6.91722 62.6569 5.30857 59.8529C3.69991 56.9951 2.41299 53.8137 1.44779 50.3088C0.482597 46.75 0 42.8407 0 38.5809C0 34.2132 0.57452 30.223 1.72356 26.6103C2.8726 22.9436 4.36635 19.6814 6.20482 16.8235C8.08925 13.9657 10.2035 11.4853 12.5475 9.38235C14.9375 7.27941 17.3275 5.52696 19.7175 4.125C22.1535 2.72304 24.4746 1.69853 26.6807 1.05147C28.9328 0.35049 30.8862 0 32.5408 0H33.0924C35.896 0.107843 38.6537 0.70098 41.3655 1.77941C44.0772 2.80392 46.6281 4.23284 49.0181 6.06618C51.454 7.89951 53.6832 10.0833 55.7055 12.6176C57.7738 15.098 59.5433 17.848 61.0141 20.8676C62.4848 23.8873 63.6339 27.0956 64.4612 30.4926C65.2885 33.8897 65.7021 37.3946 65.7021 41.0074ZM43.6406 39.7132C43.6406 38.3652 43.6406 36.5049 43.6406 34.1324C43.6406 31.7598 43.5486 29.2255 43.3648 26.5294C43.2269 23.7794 42.9511 21.0025 42.5375 18.1985C42.1238 15.3946 41.5033 12.8603 40.676 10.5956C39.8487 8.33088 38.7686 6.49755 37.4357 5.09559C36.1488 3.63971 34.5172 2.91176 32.5408 2.91176C28.772 2.91176 25.7845 5.93137 23.5783 11.9706C21.4181 18.0098 20.338 27.1495 20.338 39.3897C20.338 45.4828 20.5448 50.7132 20.9585 55.0809C21.4181 59.4485 22.1075 63.0343 23.0268 65.8382C23.946 68.6422 25.141 70.6912 26.6118 71.9853C28.0826 73.3333 29.8521 74.0074 31.9203 74.0074H32.5408C34.5172 73.8995 36.1488 73.1716 37.4357 71.8235C38.7686 70.4755 39.8487 68.4265 40.676 65.6765C41.5493 62.8726 42.1928 59.3407 42.6064 55.0809C43.066 50.8211 43.4108 45.6985 43.6406 39.7132Z" fill="#0E0E0E"/>
<path d="M103 58.2353C103 60.3382 102.655 62.3333 101.966 64.2206C101.276 66.1078 100.334 67.7524 99.1392 69.1544C97.9442 70.5564 96.5424 71.6618 94.9337 72.4706C93.3251 73.2794 91.6015 73.6838 89.763 73.6838C87.9705 73.6838 86.27 73.2794 84.6613 72.4706C83.0526 71.6618 81.6508 70.5564 80.4558 69.1544C79.2608 67.7524 78.3186 66.1078 77.6292 64.2206C76.9398 62.3333 76.595 60.3382 76.595 58.2353C76.595 56.0784 76.9398 54.0564 77.6292 52.1691C78.3186 50.2819 79.2608 48.6373 80.4558 47.2353C81.6508 45.8333 83.0526 44.7279 84.6613 43.9191C86.27 43.1103 87.9705 42.7059 89.763 42.7059C91.6015 42.7059 93.3251 43.1103 94.9337 43.9191C96.5424 44.7279 97.9442 45.8333 99.1392 47.2353C100.334 48.6373 101.276 50.2819 101.966 52.1691C102.655 54.0564 103 56.0784 103 58.2353Z" fill="#0E0E0E"/>
</svg>
