<svg width="108" height="46" viewBox="0 0 108 46" fill="none" xmlns="http://www.w3.org/2000/svg">
<path d="M0.5 16.5H104L90.5 1.5" stroke="black" stroke-width="2"/>
<path d="M68.12 33.232V40.264H71V33.16C71 29.896 68.792 27.592 65.672 27.592C64.112 27.592 62.432 28.624 61.592 30.112C60.92 28.624 59.36 27.592 57.8 27.592C56.624 27.592 55.28 28.456 54.584 29.68V27.52H51.704V40.264H54.584V33.352C54.584 31.456 55.736 29.944 57.392 29.944C58.88 29.944 59.912 31.312 59.912 33.232V40.264H62.792V33.136C62.792 31.408 63.92 29.944 65.552 29.944C67.064 29.944 68.12 31.312 68.12 33.232ZM79.1371 37.96C77.1451 37.96 75.8491 36.376 75.8491 33.928C75.8491 31.504 77.1451 29.872 79.1371 29.872C81.1291 29.872 82.4251 31.504 82.4251 33.928C82.4251 36.376 81.1291 37.96 79.1371 37.96ZM72.9691 33.928C72.9691 37.696 75.5131 40.336 79.1371 40.336C82.7611 40.336 85.3051 37.696 85.3051 33.928C85.3051 30.16 82.7611 27.52 79.1371 27.52C75.5131 27.52 72.9691 30.16 72.9691 33.928ZM89.7767 29.824V27.52H86.9207V40.264H89.7767V34.024C89.7767 32.2 91.2887 30.064 93.6167 30.064V27.496C92.0567 27.496 90.4727 28.456 89.7767 29.824ZM103.419 32.848H96.7711C97.0591 31.216 98.4271 29.872 100.227 29.872C102.267 29.872 103.203 31.432 103.419 32.848ZM94.0831 33.928C94.0831 37.696 96.6031 40.312 100.203 40.312C104.403 40.312 105.579 37.504 105.579 37.504L103.251 36.52C103.179 36.616 102.483 37.936 100.227 37.936C98.6191 37.936 97.0591 36.736 96.7711 34.96H106.035C106.035 34.648 106.275 32.68 105.507 30.952C105.435 30.784 104.187 27.52 100.203 27.52C96.6031 27.52 94.0831 30.16 94.0831 33.928Z" fill="black"/>
</svg>
