<svg width="70" height="42" viewBox="0 0 70 42" fill="none" xmlns="http://www.w3.org/2000/svg">
<path d="M0.5 16.5H67L53.5 1.5" stroke="black" stroke-width="2"/>
<path d="M19.12 29.232V36.264H22V29.16C22 25.896 19.792 23.592 16.672 23.592C15.112 23.592 13.432 24.624 12.592 26.112C11.92 24.624 10.36 23.592 8.8 23.592C7.624 23.592 6.28 24.456 5.584 25.68V23.52H2.704V36.264H5.584V29.352C5.584 27.456 6.736 25.944 8.392 25.944C9.88 25.944 10.912 27.312 10.912 29.232V36.264H13.792V29.136C13.792 27.408 14.92 25.944 16.552 25.944C18.064 25.944 19.12 27.312 19.12 29.232ZM30.1371 33.96C28.1451 33.96 26.8491 32.376 26.8491 29.928C26.8491 27.504 28.1451 25.872 30.1371 25.872C32.1291 25.872 33.4251 27.504 33.4251 29.928C33.4251 32.376 32.1291 33.96 30.1371 33.96ZM23.9691 29.928C23.9691 33.696 26.5131 36.336 30.1371 36.336C33.7611 36.336 36.3051 33.696 36.3051 29.928C36.3051 26.16 33.7611 23.52 30.1371 23.52C26.5131 23.52 23.9691 26.16 23.9691 29.928ZM40.7767 25.824V23.52H37.9207V36.264H40.7767V30.024C40.7767 28.2 42.2887 26.064 44.6167 26.064V23.496C43.0567 23.496 41.4727 24.456 40.7767 25.824ZM54.4191 28.848H47.7711C48.0591 27.216 49.4271 25.872 51.2271 25.872C53.2671 25.872 54.2031 27.432 54.4191 28.848ZM45.0831 29.928C45.0831 33.696 47.6031 36.312 51.2031 36.312C55.4031 36.312 56.5791 33.504 56.5791 33.504L54.2511 32.52C54.1791 32.616 53.4831 33.936 51.2271 33.936C49.6191 33.936 48.0591 32.736 47.7711 30.96H57.0351C57.0351 30.648 57.2751 28.68 56.5071 26.952C56.4351 26.784 55.1871 23.52 51.2031 23.52C47.6031 23.52 45.0831 26.16 45.0831 29.928Z" fill="black"/>
</svg>
