<svg width="59" height="70" viewBox="0 0 59 70" fill="none" xmlns="http://www.w3.org/2000/svg">
<path d="M17.1097 3.98484L21.8297 2.21484L25.9597 3.98484L26.5497 15.7848L33.6297 16.3748L37.1697 19.3248H41.2997L45.4297 21.0948L47.1997 22.8648H54.2797L57.2297 26.9948L56.0497 44.1048L47.7897 67.7048H23.0097L1.17969 33.4848L4.12969 29.9448L10.6197 31.7148L16.5197 35.8448L15.3397 10.4748L17.1097 3.98484Z" fill="#F6F6F6"/>
<path d="M38.2518 31.5791H34.7917V19.506C34.767 19.1785 34.4704 17.7389 31.3317 17.7389H26.1416V14.2789H31.3317C36.806 14.2789 38.2518 17.6709 38.2518 19.4689V31.5791Z" fill="#060606"/>
<path d="M48.6326 35.0392H45.1726V22.9661C45.1479 22.6386 44.8513 21.199 41.7125 21.199H36.5225V17.739H41.7125C47.1868 17.739 48.6326 21.1372 48.6326 22.929V35.0392Z" fill="#060606"/>
<path d="M49.5899 69.6396H21.8045L21.2855 68.9291C21.236 68.8549 15.9718 61.6506 10.7756 54.0262C0 38.2026 0 36.0648 0 35.0392C0 31.8819 1.23573 28.1191 7.11163 28.1191C9.09498 28.1191 11.8568 29.9356 14.0317 32.2093V5.49282C14.18 3.74426 15.805 0.444855 20.9518 0.444855C26.0986 0.444855 27.7236 3.75044 27.8657 5.49282V5.62875V31.5791H24.4057V5.75232C24.3254 5.33217 23.8434 3.89872 20.9456 3.89872C18.0479 3.89872 17.535 5.46192 17.4856 5.7276V38.4992H14.0256C14.0256 37.9555 13.1544 36.2625 11.2946 34.3719C9.28652 32.3391 7.66154 31.5791 7.10546 31.5791C4.37449 31.5791 3.45387 32.4503 3.45387 35.0392C3.65159 37.5415 13.7352 52.6978 23.553 66.1796H47.6127C49.3675 62.9173 55.54 50.0039 55.54 29.8491C55.54 26.4817 54.9901 24.659 52.0799 24.659H46.8898V21.199H52.0799C55.7871 21.199 57.4553 23.2008 58.203 24.8753C59 26.6671 59 28.6566 59 29.8491C59 54.2857 50.4487 68.2433 50.0904 68.8241L49.5837 69.6396H49.5899Z" fill="#060606"/>
</svg>
